<?xml version="1.0" encoding="UTF-8" standalone="no"?>
<!-- Created with Inkscape (http://www.inkscape.org/) -->

<svg
   xmlns:dc="http://purl.org/dc/elements/1.1/"
   xmlns:cc="http://creativecommons.org/ns#"
   xmlns:rdf="http://www.w3.org/1999/02/22-rdf-syntax-ns#"
   xmlns:svg="http://www.w3.org/2000/svg"
   xmlns="http://www.w3.org/2000/svg"
   xmlns:sodipodi="http://sodipodi.sourceforge.net/DTD/sodipodi-0.dtd"
   xmlns:inkscape="http://www.inkscape.org/namespaces/inkscape"
   width="1000"
   height="1000"
   id="svg7483"
   version="1.1"
   inkscape:version="0.91 r13725"
   viewBox="0 0 1000 1000"
   sodipodi:docname="baby3.svg">
  <defs
     id="defs5498" />
  <sodipodi:namedview
     inkscape:window-height="738"
     inkscape:window-width="1280"
     inkscape:pageshadow="2"
     inkscape:pageopacity="0.0"
     borderopacity="1.0"
     bordercolor="#666666"
     pagecolor="#ffffff"
     id="base"
     showgrid="false"
     showguides="true"
     inkscape:guide-bbox="true"
     inkscape:zoom="0.16051324"
     inkscape:cx="474.38886"
     inkscape:cy="968.9796"
     inkscape:window-x="-8"
     inkscape:window-y="-8"
     inkscape:current-layer="layer1"
     inkscape:window-maximized="1">
    <sodipodi:guide
       orientation="horizontal"
       position="200"
       id="guide5596" />
  </sodipodi:namedview>
  <metadata
     id="metadata5594">
    <rdf:RDF>
      <cc:Work
         rdf:about="">
        <dc:format>image/svg+xml</dc:format>
        <dc:type
           rdf:resource="http://purl.org/dc/dcmitype/StillImage" />
        <dc:title></dc:title>
      </cc:Work>
    </rdf:RDF>
  </metadata>
  <g
     inkscape:label="Layer 1"
     inkscape:groupmode="layer"
     id="layer1">
    <path
       inkscape:connector-curvature="0"
       id="path7042"
       style="display:inline;fill:#447788;fill-opacity:1;fill-rule:nonzero;stroke:none"
       d="m 519.97224,810.19063 c 130.81709,0 236.94295,-106.12587 236.94295,-236.91789 l -473.87338,0 c 0,130.79202 106.11333,236.91789 236.93043,236.91789" />
    <path
       inkscape:connector-curvature="0"
       id="path7046"
       style="display:inline;fill:#447788;fill-opacity:1;fill-rule:nonzero;stroke:none"
       d="m 460.7509,503.89203 c 3.33566,0 6.35779,-2.08163 7.42369,-5.39219 7.56161,-22.87294 28.86703,-38.29712 52.96889,-38.29712 21.90734,0 41.89608,12.97885 50.84961,32.91748 1.80574,3.9877 6.42049,5.73076 10.35804,3.93752 3.97515,-1.71797 5.66806,-6.34517 3.95007,-10.28279 -11.49917,-25.5941 -37.06819,-42.19704 -65.15772,-42.19704 -30.89853,0 -58.17299,19.73794 -67.80371,49.05643 -1.36682,4.11312 0.93998,8.48957 4.96586,9.86896 0.84068,0.26384 1.65523,0.38925 2.44527,0.38925" />
    <path
       inkscape:connector-curvature="0"
       id="path7050"
       style="display:inline;fill:#447788;fill-opacity:1;fill-rule:nonzero;stroke:none"
       d="m 399.66745,455.56896 c 0,-12.25158 -9.86899,-22.17069 -22.15813,-22.17069 -12.21395,0 -22.13307,9.91911 -22.13307,22.17069 0,12.25154 9.91912,22.17068 22.13307,22.17068 12.28914,0 22.15813,-9.91914 22.15813,-22.17068" />
    <path
       inkscape:connector-curvature="0"
       id="path7054"
       style="display:inline;fill:#447788;fill-opacity:1;fill-rule:nonzero;stroke:none"
       d="m 679.86956,464.70408 c 0,-12.22648 -9.86899,-22.12052 -22.13307,-22.12052 -12.22648,0 -22.09547,9.89404 -22.09547,22.12052 0,12.25155 9.86899,22.19576 22.09547,22.19576 12.26408,0 22.13307,-9.94421 22.13307,-22.19576" />
    <path
       inkscape:connector-curvature="0"
       id="path7058"
       style="display:inline;fill:#447788;fill-opacity:1;fill-rule:nonzero;stroke:none"
       d="m 507.84857,179.34526 c -39.31282,4.43914 -71.44024,4.62724 -99.79315,4.80282 -60.71862,0.36316 -104.58346,0.66513 -127.60687,52.11616 -21.04212,47.02492 19.26141,87.04003 43.51374,101.64906 3.03465,1.83088 6.38282,2.68358 9.68084,2.68358 6.38288,0 12.60272,-3.22276 16.13896,-9.10404 5.34203,-8.89083 2.48294,-20.45269 -6.42045,-25.8198 -0.41332,-0.23774 -41.40703,-25.34334 -28.57863,-54.04731 12.53998,-28.02688 32.45345,-29.49404 93.51065,-29.85772 27.82622,-0.17545 62.46165,-0.38823 103.76834,-5.0536 C 625.10995,204.0114 650.00183,95.089101 647.36841,39.298739 c -0.4765,-10.383112 -9.4426,-18.371077 -19.66267,-17.90711 -10.39567,0.48957 -18.39619,9.292122 -17.90708,19.675235 0.23768,5.141372 4.71503,126.277606 -101.95009,138.278396" />
    <path
       inkscape:connector-curvature="0"
       id="path7062"
       style="display:inline;fill:#447788;fill-opacity:1;fill-rule:nonzero;stroke:none"
       d="m 641.86967,259.53392 c 16.27693,35.9772 44.41662,57.11963 75.74154,57.11963 1.0408,0 2.09416,-0.0203 3.14749,-0.0702 27.06132,-1.2289 50.94995,-18.47138 59.46461,-42.93686 13.5808,-39.06206 -16.01358,-66.54968 -39.23759,-75.46564 -9.64327,-3.6742 -20.56557,1.10352 -24.30249,10.8095 -3.72439,9.69341 1.11607,20.56559 10.80945,24.31503 2.42022,0.92792 23.57521,9.65578 17.19231,27.97668 -3.43592,9.91911 -13.96955,17.19234 -25.61916,17.73151 -16.91646,0.36319 -32.52872,-12.00071 -42.93691,-34.97397 -20.97939,-46.42302 13.9194,-121.90119 29.14292,-147.081457 5.35457,-8.890839 2.53306,-20.452701 -6.34523,-25.832402 -8.89085,-5.367086 -20.45272,-2.558111 -25.83235,6.32018 -2.65848,4.376449 -64.71888,108.082109 -31.22459,182.093069" />
    <path
       inkscape:connector-curvature="0"
       id="path7066"
       style="display:inline;fill:#447788;fill-opacity:1;fill-rule:nonzero;stroke:none"
       d="M 933.33891,444.2037 C 917.65141,310.37703 843.43977,197.46703 737.99104,129.38747 c -1.06587,0.0605 -9.94419,0.80256 -13.02901,9.15418 -3.28548,8.86578 0.50159,19.71284 0.50159,19.71284 l -0.15052,0.0503 c 98.23821,65.27062 166.3554,173.01413 178.04264,299.9313 l 1.11607,12.00076 11.86279,2.03149 c 27.83878,4.6774 48.01562,28.49085 48.01562,56.63059 0,31.45025 -25.61919,57.33279 -57.10708,57.58359 l -11.98821,0.11344 -3.03469,11.61201 c -45.94655,178.08018 -205.90656,302.50187 -388.89,302.50187 -183.05866,0 -343.0061,-124.48442 -388.90244,-302.71518 l -2.90929,-11.24837 -11.586952,-0.48856 c -31.074041,-1.24146 -55.36401,-26.4468 -55.36401,-57.35789 0,-27.41237 19.462053,-51.16312 46.23489,-56.53022 l 11.499172,-2.28226 1.07844,-11.62456 C 122.50353,249.19557 294.46432,91.442599 503.33024,91.442599 c 17.45569,0 34.53512,1.442104 51.3387,3.674207 l 0,-0.0503 c 0,0 16.47754,-2.570671 19.61254,-12.565026 2.99704,-9.542954 -2.33245,-16.327082 -2.82151,-16.916445 -22.19576,-3.486097 -44.90564,-5.392161 -68.12973,-5.392161 -221.54381,0 -404.52727,164.537079 -430.021063,384.626299 -35.400353,12.12616 -60.028878,45.84618 -60.028878,84.0806 0,43.81471 31.538045,80.15553 73.684916,87.41616 52.968885,186.43196 222.672465,315.66899 416.365025,315.66899 193.57976,0 363.13282,-129.02384 416.22708,-315.10462 42.93693,-6.29508 76.10521,-43.5263 76.10521,-87.98053 0,-39.38811 -25.56906,-73.2335 -62.32375,-84.69504" />
  </g>
</svg>
